<svg width="24" height="24" viewBox="0 0 24 24" fill="none" xmlns="http://www.w3.org/2000/svg">
<path d="M16 8.5V15.5M16 8.5H13.25M16 8.5H18.75M16 15.5H18.75M16 15.5H13.25" stroke="black" stroke-width="1.5" stroke-linecap="round" stroke-linejoin="bevel"/>
<path d="M5.25 8.5C5.25 8.5 5.25 11 5.25 12.5C5.25 14 5.5 15.5 8 15.5C10.5 15.5 10.75 14 10.75 12.5C10.75 11 10.75 8.5 10.75 8.5" stroke="black" stroke-width="1.5" stroke-linecap="round" stroke-linejoin="bevel"/>
<path d="M22.5 12C22.5 17.799 17.799 22.5 12 22.5C6.20101 22.5 1.5 17.799 1.5 12C1.5 6.20101 6.20101 1.5 12 1.5C17.799 1.5 22.5 6.20101 22.5 12Z" stroke="black" stroke-width="1.5"/>
</svg>
